<svg width="123" height="64" viewBox="0 0 123 64" fill="none" xmlns="http://www.w3.org/2000/svg">
<path fill-rule="evenodd" clip-rule="evenodd" d="M91 12H110L123 30L122.5 53.5H117C117 46.5964 111.404 41 104.5 41C97.5964 41 92 46.5964 92 53.5H87L91 12ZM94 16H108L118 30H94V16Z" fill="#1A9047"/>
<path fill-rule="evenodd" clip-rule="evenodd" d="M91 0H18.5V7H32V11H7.5V15.5H45V20H13V24.5H32V28H0.5V33H15L13 54H24.0098C24.0033 53.8341 24 53.6675 24 53.5C24 46.5964 29.5964 41 36.5 41C43.4036 41 49 46.5964 49 53.5C49 53.6675 48.9967 53.8341 48.9902 54H85L91 0Z" fill="#1A9047"/>
<path d="M115 54C115 59.5228 110.523 64 105 64C99.4772 64 95 59.5228 95 54C95 48.4772 99.4772 44 105 44C110.523 44 115 48.4772 115 54ZM100.265 54C100.265 56.615 102.385 58.7349 105 58.7349C107.615 58.7349 109.735 56.615 109.735 54C109.735 51.385 107.615 49.2651 105 49.2651C102.385 49.2651 100.265 51.385 100.265 54Z" fill="#1A9047"/>
<path d="M46 54C46 59.5228 41.5228 64 36 64C30.4772 64 26 59.5228 26 54C26 48.4772 30.4772 44 36 44C41.5228 44 46 48.4772 46 54ZM31.2651 54C31.2651 56.615 33.385 58.7349 36 58.7349C38.615 58.7349 40.7349 56.615 40.7349 54C40.7349 51.385 38.615 49.2651 36 49.2651C33.385 49.2651 31.2651 51.385 31.2651 54Z" fill="#1A9047"/>
<circle cx="105" cy="54" r="3" fill="#1A9047"/>
<circle cx="36" cy="54" r="3" fill="#1A9047"/>
</svg>
